 <svg  version="1.0" xmlns="http://www.w3.org/2000/svg"  width="300.000000pt" height="300.000000pt" viewBox="0 0 300.000000 300.000000"  preserveAspectRatio="xMidYMid meet">  <g transform="translate(0.000000,300.000000) scale(0.050000,-0.050000)" fill="#2c4bc9" stroke="none"> <path d="M2279 4659 l-729 -212 -6 -349 c-9 -576 47 -964 208 -1428 49 -143 95 -275 101 -293 10 -30 1 -31 -95 -10 -104 23 -105 24 -146 138 -49 135 -39 133 -237 53 l-155 -62 0 -363 c0 -619 48 -675 670 -795 166 -33 653 -98 726 -98 47 0 115 -29 213 -90 177 -110 170 -110 349 0 107 66 166 90 223 90 121 0 627 77 867 132 474 109 512 165 512 761 l0 363 -155 62 c-198 80 -188 82 -236 -52 -41 -112 -42 -114 -145 -137 -57 -13 -104 -21 -104 -18 0 3 32 87 70 187 181 468 254 915 245 1512 l-5 399 -190 57 c-104 31 -429 126 -721 211 l-532 154 -728 -212z m669 -587 c37 -15 102 -59 145 -98 42 -38 106 -75 142 -83 79 -17 79 -19 12 -98 -193 -229 -200 -563 -17 -813 72 -98 68 -120 -24 -120 -16 0 -74 -40 -128 -88 -109 -98 -251 -145 -369 -123 -82 15 -82 11 -19 103 70 103 65 116 -65 179 -65 32 -169 110 -240 180 l-124 125 -41 -67 c-76 -121 -192 -206 -331 -241 -94 -24 -46 274 65 396 29 33 26 47 -40 181 -39 80 -76 189 -82 242 l-12 98 64 -13 c134 -27 323 -182 361 -297 4 -13 66 36 136 107 88 88 166 146 244 179 129 55 137 77 65 183 -27 41 -50 79 -50 85 0 23 244 10 308 -17z m469 -397 c36 -97 37 -108 7 -141 -39 -44 -13 -101 51 -110 34 -5 143 -216 120 -234 -3 -3 -52 -20 -110 -39 -118 -38 -127 -56 -55 -103 61 -40 63 -60 8 -89 -53 -29 -121 30 -188 162 -95 185 -83 387 31 568 74 116 87 114 136 -14z m-1626 -1776 c23 -93 48 -194 56 -224 20 -81 -73 -79 -116 2 -39 77 -181 106 -223 46 -23 -33 -128 -41 -128 -10 0 5 60 93 133 196 176 247 216 246 278 -10z m2449 119 c0 -51 6 -60 35 -49 147 57 208 17 245 -159 26 -128 28 -124 -39 -133 -44 -6 -51 3 -67 83 -37 192 -149 182 -125 -11 12 -95 -38 -167 -83 -121 -5 4 -86 425 -86 446 0 3 27 6 60 6 54 0 60 -6 60 -62z m-510 -38 c0 -37 -12 -52 -45 -56 -49 -7 -77 36 -57 87 20 53 102 28 102 -31z m-1010 10 c35 -42 10 -90 -48 -90 -55 0 -75 34 -49 85 22 43 64 45 97 5z m600 -48 c0 -79 20 -101 74 -81 113 44 180 -38 184 -226 2 -87 -2 -95 -46 -95 -55 0 -72 33 -72 139 0 52 -10 81 -33 89 -55 21 -87 -26 -87 -129 0 -80 -7 -99 -42 -109 -59 -19 -59 -17 -72 228 l-12 222 53 0 c39 0 53 -10 53 -38z m-844 -37 c4 -25 20 -45 35 -45 16 0 29 -18 29 -40 0 -27 -13 -40 -40 -40 -33 0 -40 -13 -40 -80 0 -67 7 -80 40 -80 27 0 40 -13 40 -40 0 -31 -13 -40 -56 -40 -99 0 -133 43 -128 158 2 58 -5 102 -16 102 -11 0 -20 18 -20 40 0 22 8 40 19 40 10 0 24 19 31 41 18 57 98 45 106 -16z m-358 7 c132 -8 169 -92 129 -291 -22 -113 -96 -77 -100 49 -4 150 -4 150 -46 150 -49 0 -67 -29 -80 -130 -10 -70 -18 -81 -69 -87 l-58 -6 14 106 c29 229 33 241 80 227 23 -7 82 -15 130 -18z m1962 -32 c0 -33 -13 -40 -80 -40 -44 0 -80 -9 -80 -20 0 -11 22 -20 49 -20 153 0 214 -126 92 -189 -65 -34 -192 -42 -210 -13 -24 40 13 76 75 74 88 -3 101 36 14 45 -196 18 -147 203 54 203 73 0 86 -6 86 -40z m-312 -165 l14 -155 -52 0 c-60 0 -63 7 -79 184 -11 127 -10 133 34 141 65 10 69 2 83 -170z m-1048 -12 c0 -176 -2 -181 -70 -168 -86 17 -64 325 23 325 45 0 47 -5 47 -157z m180 136 c0 -14 12 -14 39 0 159 86 306 -152 172 -278 -40 -38 -64 -44 -130 -36 -81 11 -81 11 -81 -57 0 -59 -6 -68 -50 -68 l-50 0 0 230 0 230 50 0 c28 0 50 -9 50 -21z"/> <path d="M1634 1907 c-32 -61 -31 -63 11 -74 57 -15 60 -9 40 70 l-18 67 -33 -63z"/> <path d="M2924 1727 c-24 -41 -9 -101 28 -115 65 -25 120 39 97 111 -15 46 -100 49 -125 4z"/> </g> </svg> 